{"title":"Animals United 2011 Real BDRip XVID AC3 HQ Hive-CM8","uid":6337535,"size":1857382400,"categoryP":"video","categoryS":"movies","magnet":"?xt=urn:btih:514bbc23173ce24f0e5f0f606159c5df7563292a&amp;dn=Animals+United+2011+Real+BDRip+XVID+AC3+HQ+Hive-CM8&amp;tr=udp%3A%2F%2Ftracker.openbittorrent.com%3A80&amp;tr=udp%3A%2F%2Fopen.demonii.com%3A1337&amp;tr=udp%3A%2F%2Ftracker.coppersurfer.tk%3A6969&amp;tr=udp%3A%2F%2Fexodus.desync.com%3A6969","seeders":0,"leechers":1,"uploader":"HeroMaster","files":-1,"time":1303530367,"description":"Animals.United.2011.Real.BDRip.XVID.AC3.HQ.Hive-CM8 Thx Hive\n\nCM8 Doing It Right The First Time\n\nSources\n\nVideo: Real Full German Bluray (not the crappy russian one)\nAudio: UK Retail\nVideo: 720x304 @bitrate 2200 2pass\nAudio: English AC3 5.1 @448\n\nEncode:\n\nImagine took a german tagged video which is really the old russian video with dubbed german audio, surely by mistake\nThe Real German Bluray has a very good quality unlike the russian one\nHere is a quick comparison between the russian and the german bluray 1:1 http://screenshotcomparison.com/comparison/46064\n\nThe Intro and language at the introduction is also different\nThe russian bluray begins with &quot;constantin film presents Animals united&quot;\nThe German bluray begins with &quot;constantin film p sentiert Konferenz der Tiere&quot;\n\nanyway, new video, far better quality\nlooks amazing now\n\nenjoy http://www.imdb.com/title/tt1620449/\n\nGeneral\nComplete name: Animals.United.2011.Real.BDRip.XVID.AC3.HQ.Hive-CM8.avi\nFormat: AVI\nFormat/Info: Audio Video Interleave\nFile size: 1.73 GiB\nDuration: 1h 33mn\nOverall bit rate: 2 656 Kbps\nWriting application: Nandub v1.0rc2\nWriting library: Nandub build 1853/release\n\nVideo\nID: 0\nFormat: MPEG-4 Visual\nFormat profile: Advanced Simple@L5\nFormat settings, BVOP: Yes\nFormat settings, QPel: Yes\nFormat settings, GMC: No warppoints\nFormat settings, Matrix: Default (H.263)\nMuxing mode: Packed bitstream\nCodec ID: XVID\nCodec ID/Hint: XviD\nDuration: 1h 33mn\nBit rate: 2 199 Kbps\nWidth: 720 pixels\nHeight: 304 pixels\nDisplay aspect ratio: 2.35:1\nFrame rate: 23.976 fps\nColor space: YUV\nChroma subsampling: 4:2:0\nBit depth: 8 bits\nScan type: Progressive\nBits/(Pixel*Frame): 0.419\nStream size: 1.43 GiB (83%)\nWriting library: XviD 1.2.1 (UTC 2008-12-04)\n\nAudio\nID: 1\nFormat: AC-3\nFormat/Info: Audio Coding 3\nMode extension: CM (complete main)\nCodec ID: 2000\nDuration: 1h 33mn\nBit rate mode: Constant\nBit rate: 448 Kbps\nChannel(s): 6 channels\nChannel positions: Front: L C R, Side: L R, LFE\nSampling rate: 48.0 KHz\nBit depth: 16 bits\nVideo delay: 22ms\nStream size: 299 MiB (17%)\nAlignment: Split accross interleaves\nInterleave, duration: 42 ms (1.00 video frame)\nInterleave, preload duration: 500 ms\n\n\nBilly Beach ... Vulture 2 (voice: English version)\nJim Broadbent ... Winston (voice: English version)\nJames Corden ... Billy (voice: English version)\nNicola Devico Mamone ... B ffel Chino (voice) (as Nico Mamone)\nMarc Diraison ... Cook (voice: English version)\nOmid Djalili ... Bongo (voice: English version)\nJason Donovan ... Toby (voice: English version)\nDawn French ... Angie (voice: English version)\nThomas Fritsch ... L we Sokrates (voice)\nStephen Fry ... Socrates (voice: English version)\n\n\nA group of animals waiting for the annual flood they rely on for food and water\ndiscover that the humans, who have been destroying their habitats have built a dam\nfor a leisure resort. The animals endeavor to save the delta and send a message to\nthe humans not to interfere with nature\n\n\nScreens:\n\n &lt;a href=&quot;\nhttp://leetleech.org/images/10663372431710647004.png&quot; rel=&quot;nofollow&quot; target=&quot;_NEW&quot;&gt;\nhttp://leetleech.org/images/10663372431710647004.png&lt;/a&gt;\n &lt;a href=&quot;\nhttp://leetleech.org/images/47266777687753269145.png&quot; rel=&quot;nofollow&quot; target=&quot;_NEW&quot;&gt;\nhttp://leetleech.org/images/47266777687753269145.png&lt;/a&gt;\n &lt;a href=&quot;\nhttp://leetleech.org/images/52178773715761398959.png&quot; rel=&quot;nofollow&quot; target=&quot;_NEW&quot;&gt;\nhttp://leetleech.org/images/52178773715761398959.png&lt;/a&gt;\n\n\nENJOY!","torrent":{"xt":"urn:btih:514bbc23173ce24f0e5f0f606159c5df7563292a","amp;dn":"Animals+United+2011+Real+BDRip+XVID+AC3+HQ+Hive-CM8","amp;tr":["udp%3A%2F%2Ftracker.openbittorrent.com%3A80","udp%3A%2F%2Fopen.demonii.com%3A1337","udp%3A%2F%2Ftracker.coppersurfer.tk%3A6969","udp%3A%2F%2Fexodus.desync.com%3A6969"],"infoHash":"514bbc23173ce24f0e5f0f606159c5df7563292a","infoHashBuffer":{"type":"Buffer","data":[81,75,188,35,23,60,226,79,14,95,15,96,97,89,197,223,117,99,41,42]},"announce":[],"urlList":[]}}